<?xml version="1.0" standalone="no"?>
<!DOCTYPE svg PUBLIC "-//W3C//DTD SVG 20010904//EN"
 "http://www.w3.org/TR/2001/REC-SVG-20010904/DTD/svg10.dtd">
<svg version="1.0" xmlns="http://www.w3.org/2000/svg"
 width="500.000000pt" height="500.000000pt" viewBox="0 0 500.000000 500.000000"
 preserveAspectRatio="xMidYMid meet">
<metadata>
Created by potrace 1.11, written by Peter Selinger 2001-2013
</metadata>
<g transform="translate(0.000000,500.000000) scale(0.100000,-0.100000)"
fill="#000000" stroke="none">
<path d="M3810 4990 c0 -3 -19 -6 -42 -5 -24 0 -45 -3 -48 -6 -3 -4 -17 -10
-30 -12 -28 -4 -49 -12 -98 -33 -18 -8 -37 -12 -42 -9 -4 3 -11 -2 -14 -11 -3
-8 -10 -12 -16 -9 -5 3 -10 1 -10 -4 0 -6 -7 -11 -15 -11 -8 0 -15 -5 -15 -11
0 -5 -4 -7 -10 -4 -5 3 -10 1 -10 -4 0 -6 -7 -11 -15 -11 -8 0 -15 -5 -15 -12
0 -6 -3 -8 -6 -5 -4 4 -19 -4 -34 -16 -16 -12 -42 -33 -59 -45 -17 -13 -49
-41 -71 -62 -22 -21 -40 -36 -40 -35 0 5 -71 -70 -120 -126 -25 -29 -53 -61
-62 -71 -10 -10 -15 -18 -11 -18 3 0 -4 -9 -17 -20 -13 -11 -20 -20 -17 -20 4
0 -1 -8 -10 -18 -10 -10 -25 -29 -33 -42 -8 -12 -21 -28 -27 -36 -7 -7 -13
-17 -13 -23 0 -6 -4 -11 -10 -11 -5 0 -10 -7 -10 -15 0 -8 -4 -15 -10 -15 -5
0 -10 -7 -10 -15 0 -8 -4 -15 -8 -15 -4 0 -13 -12 -20 -27 -18 -39 -47 -90
-62 -108 -7 -8 -9 -15 -5 -15 3 0 -3 -12 -14 -26 -12 -15 -21 -33 -21 -40 0
-8 -5 -14 -12 -14 -6 0 -9 -3 -6 -6 4 -3 -9 -35 -28 -70 -19 -35 -34 -71 -34
-79 0 -8 -5 -15 -11 -15 -5 0 -8 -4 -4 -9 3 -5 1 -12 -5 -16 -5 -3 -10 -15
-10 -26 0 -10 -5 -19 -10 -19 -6 0 -9 -3 -8 -7 1 -5 -4 -19 -12 -33 -7 -14
-12 -25 -11 -25 1 0 0 -7 -2 -15 -3 -8 -7 -22 -10 -30 -2 -8 -6 -19 -8 -25 -1
-5 -8 -21 -15 -34 -7 -14 -11 -28 -8 -33 3 -4 0 -8 -6 -8 -7 0 -10 -6 -7 -14
3 -8 -1 -17 -8 -20 -8 -3 -12 -11 -9 -19 2 -7 -1 -25 -9 -40 l-14 -26 -32 55
c-19 30 -37 54 -42 54 -5 0 -8 4 -7 9 3 10 -1 15 -96 115 -36 39 -66 74 -66
78 0 4 -4 8 -8 8 -4 0 -26 17 -48 38 -62 57 -145 127 -157 131 -6 2 -23 15
-37 28 -14 13 -33 26 -42 29 -10 3 -18 10 -18 15 0 5 -6 9 -13 9 -7 0 -26 12
-42 28 -16 15 -30 26 -30 24 0 -5 -39 10 -45 17 -11 13 -70 42 -70 34 0 -4 -5
0 -11 10 -6 9 -14 15 -19 12 -5 -3 -11 -1 -15 5 -4 6 -11 8 -16 5 -5 -4 -12 0
-15 9 -3 8 -14 13 -25 11 -11 -2 -17 0 -14 4 2 5 -11 12 -30 15 -19 4 -35 10
-35 15 0 7 -15 11 -52 12 -10 0 -18 4 -18 10 0 5 -11 9 -23 9 -13 0 -27 3 -31
7 -3 4 -23 8 -42 9 -20 1 -39 5 -43 10 -6 9 -53 13 -186 14 -76 1 -104 -2
-122 -13 -6 -4 -14 -3 -17 1 -7 11 -56 3 -56 -9 0 -4 -9 -6 -20 -4 -11 2 -22
0 -25 -6 -4 -5 -17 -9 -31 -9 -13 0 -24 -4 -24 -10 0 -5 -11 -12 -25 -16 -14
-3 -25 -10 -25 -15 0 -5 -3 -8 -8 -7 -4 2 -14 -3 -22 -10 -8 -7 -32 -25 -53
-41 -21 -17 -37 -31 -35 -33 5 -6 -27 -36 -33 -32 -4 2 -12 -10 -19 -26 -7
-17 -16 -30 -21 -30 -5 0 -16 -15 -25 -32 -9 -18 -20 -35 -23 -38 -3 -3 -15
-23 -26 -45 -11 -22 -24 -43 -28 -46 -4 -3 -9 -16 -10 -27 -1 -12 -5 -22 -9
-22 -4 0 -8 -6 -8 -12 0 -7 -7 -26 -15 -42 -9 -16 -13 -31 -11 -34 3 -2 0 -14
-6 -26 -17 -32 -22 -81 -21 -206 2 -138 7 -189 21 -217 6 -11 8 -23 5 -27 -4
-3 -1 -16 5 -29 12 -25 26 -78 24 -89 -1 -5 3 -8 9 -8 5 0 7 -4 4 -10 -3 -5
-1 -10 5 -10 6 0 8 -5 4 -11 -3 -6 -2 -14 4 -18 6 -3 13 -20 16 -36 3 -16 10
-31 16 -33 5 -2 10 -12 10 -23 0 -10 4 -19 9 -19 5 0 12 -13 16 -30 4 -17 10
-30 14 -30 4 0 15 -18 25 -40 10 -22 22 -40 27 -40 5 0 8 -3 7 -7 -3 -10 33
-66 49 -76 7 -4 13 -14 13 -20 0 -7 12 -27 28 -44 15 -18 38 -46 52 -63 14
-17 42 -50 62 -73 21 -23 38 -46 38 -50 0 -5 4 -5 10 -2 5 3 10 0 10 -8 0 -15
260 -277 275 -277 3 0 17 -12 30 -26 14 -15 25 -24 25 -20 0 4 6 1 14 -6 8 -7
11 -17 8 -23 -3 -5 -2 -7 3 -3 6 6 65 -31 85 -52 3 -3 21 -17 40 -30 19 -13
37 -27 40 -30 13 -14 70 -50 80 -50 5 0 10 -4 10 -10 0 -5 5 -10 10 -10 6 0
16 -5 23 -10 48 -41 62 -50 74 -50 7 0 13 -4 13 -8 0 -5 24 -25 53 -45 28 -20
63 -47 77 -59 14 -13 41 -35 60 -50 19 -14 52 -42 73 -62 20 -20 41 -36 46
-36 5 0 13 -9 16 -20 3 -11 12 -20 20 -20 8 0 17 -9 20 -20 3 -11 13 -20 21
-20 8 0 14 -3 14 -7 0 -5 15 -24 33 -43 65 -70 127 -147 127 -159 0 -6 5 -11
10 -11 6 0 14 -8 17 -17 4 -10 17 -32 30 -49 12 -17 20 -34 16 -37 -3 -4 -1
-7 5 -7 7 0 12 -7 12 -15 0 -8 4 -15 8 -15 5 0 14 -16 22 -35 8 -19 17 -35 20
-35 3 0 12 -16 20 -35 8 -19 17 -35 22 -35 4 0 7 -3 7 -7 -1 -5 0 -11 1 -15 1
-5 3 -11 5 -15 1 -5 12 -30 25 -58 13 -27 25 -53 26 -57 1 -5 3 -11 4 -15 1
-5 2 -11 1 -15 0 -5 4 -8 10 -8 6 0 9 -6 6 -14 -3 -7 -1 -18 3 -22 5 -5 11
-18 13 -29 1 -11 6 -26 11 -33 4 -7 5 -16 2 -19 -3 -3 -1 -12 4 -18 6 -7 12
-30 15 -51 2 -22 8 -51 14 -66 6 -17 7 -30 1 -33 -5 -3 -6 -15 -1 -28 4 -12 6
-28 4 -35 -3 -7 1 -20 9 -29 11 -14 11 -16 -1 -8 -11 6 -12 5 -5 -6 11 -18 12
-139 1 -139 -5 0 -7 -6 -4 -12 2 -7 0 -21 -4 -30 -6 -10 -5 -19 1 -23 8 -5 7
-11 -1 -21 -9 -11 -9 -14 1 -14 9 0 7 -7 -6 -22 -12 -13 -13 -18 -4 -13 12 7
13 6 4 -6 -6 -8 -10 -25 -10 -39 1 -14 -2 -27 -6 -30 -4 -3 -10 -17 -12 -30
-2 -14 -5 -25 -6 -25 -1 0 -3 -10 -6 -22 -2 -13 1 -23 6 -23 6 0 10 5 10 10 0
6 7 10 15 10 8 0 15 6 15 14 0 7 12 29 28 48 15 20 34 46 42 58 8 12 20 28 26
34 6 6 12 16 14 21 2 6 8 15 12 20 31 38 78 105 78 112 0 5 9 14 20 21 11 7
20 18 20 26 0 7 11 26 24 41 14 16 23 32 20 37 -3 4 0 8 6 8 6 0 9 4 6 9 -3 5
1 11 9 15 8 3 15 12 15 21 0 8 5 15 11 15 5 0 7 5 4 10 -3 6 -1 10 4 10 6 0
11 5 11 10 0 6 16 36 35 66 19 30 35 59 35 64 0 5 8 14 18 19 9 6 14 11 9 11
-4 0 4 18 18 40 14 22 25 44 25 50 0 5 5 10 10 10 6 0 10 6 10 14 0 8 6 21 13
28 6 7 21 31 32 53 11 22 23 42 26 45 3 3 9 12 12 20 4 8 19 33 32 55 14 22
28 48 32 58 3 9 9 17 14 17 5 0 8 3 7 7 -3 13 24 63 34 63 4 0 7 3 6 7 -1 5 3
18 10 30 7 13 10 23 7 23 -3 0 4 9 15 20 11 11 22 31 26 45 3 14 10 25 15 25
5 0 6 7 2 15 -3 10 -1 15 7 13 7 -2 14 4 15 12 1 8 14 35 29 60 15 25 31 57
37 73 6 15 15 27 20 27 5 0 9 8 9 19 0 10 7 24 15 31 8 7 15 21 15 31 0 11 4
19 9 19 8 0 17 21 19 44 0 5 4 12 9 15 16 11 46 64 32 56 -9 -5 -8 -1 2 11 23
26 89 154 89 171 0 7 5 13 10 13 6 0 10 7 10 15 0 8 5 15 11 15 5 0 7 5 4 10
-3 6 1 17 9 26 9 9 14 20 11 25 -4 5 -2 9 2 9 9 0 37 59 34 73 -1 4 5 10 13
13 8 3 12 12 9 20 -3 8 0 14 6 14 6 0 11 5 11 10 0 6 18 47 40 91 22 45 40 88
40 96 0 8 5 11 10 8 8 -5 13 15 9 41 0 4 5 10 13 15 7 5 13 12 13 16 1 4 9 23
18 41 10 17 15 32 12 32 -3 0 7 19 22 42 14 24 25 43 24 43 -1 0 2 13 8 28 6
16 11 33 11 38 0 5 6 12 13 15 8 3 14 10 14 17 0 29 36 106 47 100 6 -4 5 1
-3 11 -12 15 -12 17 0 14 8 -2 13 4 11 14 -1 9 2 19 8 23 5 3 10 15 10 26 0
10 5 19 10 19 6 0 9 3 9 8 -1 4 3 21 10 37 6 17 11 34 10 39 0 5 4 12 10 16 6
3 13 16 15 27 3 12 11 34 20 51 8 16 12 32 9 36 -4 3 -1 6 5 6 7 0 12 9 12 19
0 11 5 23 10 26 6 4 8 10 5 15 -3 5 -1 11 5 15 5 3 10 17 10 31 0 14 4 22 10
19 6 -3 10 4 10 17 0 14 7 33 15 44 8 10 15 29 15 41 0 12 5 25 11 28 6 4 8
13 5 20 -2 7 2 22 10 34 8 12 12 26 9 31 -3 6 -2 10 3 10 7 0 36 90 37 115 0
6 5 13 12 18 6 4 10 16 8 27 -2 11 0 20 4 20 7 0 11 15 12 53 0 9 3 17 7 17 4
0 9 12 10 26 1 15 6 32 10 38 5 6 8 20 8 31 -1 11 2 22 5 25 4 3 8 19 10 35 2
17 7 36 13 43 5 7 6 15 3 18 -3 3 -1 18 4 32 11 28 20 80 21 124 1 15 5 25 9
22 5 -3 5 6 -1 20 -6 17 -6 26 2 28 6 2 11 42 12 103 0 55 6 103 11 107 7 5 7
8 0 8 -6 0 -10 33 -10 83 0 45 -2 87 -6 92 -8 11 -20 68 -23 102 0 11 -4 19
-8 16 -5 -2 -8 5 -8 15 0 11 -7 22 -15 26 -9 3 -12 12 -8 22 4 11 2 15 -4 11
-5 -3 -16 6 -24 21 -17 32 -36 50 -109 99 -30 20 -58 41 -62 47 -4 6 -8 7 -8
3 0 -5 -16 1 -35 13 -19 12 -39 19 -44 16 -5 -3 -11 1 -15 9 -3 8 -12 12 -21
9 -8 -3 -15 -2 -15 4 0 6 -8 9 -17 7 -10 -1 -27 2 -38 8 -10 5 -40 11 -65 13
-25 1 -45 3 -45 4 0 2 -30 4 -67 5 -38 1 -68 -1 -68 -5z"/>
</g>
</svg>
